<?xml version="1.0" encoding="utf-8"?>
<!-- Generator: Adobe Illustrator 14.0.0, SVG Export Plug-In . SVG Version: 6.00 Build 43363)  -->
<!DOCTYPE svg PUBLIC "-//W3C//DTD SVG 1.1//EN" "http://www.w3.org/Graphics/SVG/1.1/DTD/svg11.dtd">
<svg version="1.1"
	 id="Layer_1" xmlns:cc="http://creativecommons.org/ns#" xmlns:dc="http://purl.org/dc/elements/1.1/" xmlns:rdf="http://www.w3.org/1999/02/22-rdf-syntax-ns#"
	 xmlns="http://www.w3.org/2000/svg" xmlns:xlink="http://www.w3.org/1999/xlink" x="0px" y="0px" width="24px" height="24px"
	 viewBox="0 0 24 24" enable-background="new 0 0 24 24" xml:space="preserve">
<path fill="#0060FF" d="M12.031,2c-3.865,0-7,3.1-7,7c0,1.3,0.402,2.6,1.094,3.7c0.033,0.1,0.059,0.1,0.094,0.2l4.343,8
	C10.766,21.5,11.344,22,12,22c0.656,0,1.202-0.5,1.406-1.1l4.844-8.7c0.499-1,0.781-2.1,0.781-3.2C19.031,5.1,15.896,2,12.031,2z
	 M12,5.9c1.934,0,3.5,1.6,3.5,3.5c0,2-1.566,3.5-3.5,3.5c-1.933,0-3.5-1.5-3.5-3.5C8.5,7.5,10.067,5.9,12,5.9z"/>
<path fill="#2C8CFF" d="M12.031,1.031c-3.865,0-7,3.134-7,7c0,1.383,0.402,2.665,1.094,3.75c0.033,0.053,0.059,0.104,0.094,0.156
	L10.562,20c0.204,0.586,0.782,1.031,1.438,1.031c0.656,0,1.202-0.445,1.406-1.031l4.844-8.75c0.499-0.963,0.781-2.06,0.781-3.219
	C19.031,4.165,15.896,1.031,12.031,1.031z M12,5c1.934,0,3.5,1.567,3.5,3.5S13.934,12,12,12c-1.933,0-3.5-1.567-3.5-3.5
	S10.067,5,12,5z"/>
</svg>